<?xml version="1.0" standalone="no"?>
<!DOCTYPE svg PUBLIC "-//W3C//DTD SVG 20010904//EN"
 "http://www.w3.org/TR/2001/REC-SVG-20010904/DTD/svg10.dtd">
<svg version="1.0" xmlns="http://www.w3.org/2000/svg"
 width="146.000000pt" height="194.000000pt" viewBox="0 0 146.000000 194.000000"
 preserveAspectRatio="xMidYMid meet">
<metadata>
Created by potrace 1.15, written by Peter Selinger 2001-2017
</metadata>
<g transform="translate(0.000000,194.000000) scale(0.100000,-0.100000)"
fill="#0079c1" stroke="none">
<path d="M390 1700 l0 -120 95 0 95 0 0 34 0 35 -52 3 -53 3 -3 43 -3 42 55 0
56 0 0 40 0 40 -95 0 -95 0 0 -120z"/>
<path d="M680 1777 c0 -36 6 -49 35 -77 19 -19 35 -38 35 -42 0 -4 -16 -8 -35
-8 -33 0 -35 -2 -35 -35 l0 -35 95 0 95 0 0 37 c0 30 -8 45 -42 80 l-42 43 42
0 42 0 0 40 0 40 -95 0 -95 0 0 -43z"/>
<path d="M960 1777 c0 -36 6 -49 35 -77 19 -19 35 -38 35 -42 0 -4 -16 -8 -35
-8 -33 0 -35 -2 -35 -35 l0 -35 95 0 95 0 0 37 c0 30 -8 45 -42 80 l-42 43 42
0 42 0 0 40 0 40 -95 0 -95 0 0 -43z"/>
<path d="M135 1433 c3 -16 30 -307 61 -648 31 -341 57 -621 58 -622 0 0 117
-32 259 -71 l257 -70 258 70 c141 39 258 71 258 71 1 1 27 283 58 627 31 344
59 635 62 648 l4 22 -640 0 -639 0 4 -27z m1029 -310 c-4 -43 -8 -79 -9 -81
-1 -1 -85 -38 -186 -82 l-184 -79 178 -1 c150 0 177 -2 177 -15 0 -53 -42
-471 -48 -476 -4 -4 -78 -28 -165 -53 l-157 -46 -162 48 c-186 56 -171 39
-182 200 l-8 102 86 0 86 0 0 -52 c0 -29 4 -59 9 -66 4 -7 43 -22 87 -33 l79
-21 81 22 c45 12 86 25 91 29 6 3 13 50 17 104 l6 97 -275 0 -275 0 -4 23 c-3
12 -7 48 -8 79 l-3 58 95 40 c52 22 138 58 190 80 l95 39 -197 1 -196 0 -6 40
c-3 22 -9 58 -12 80 l-6 40 407 0 406 0 -7 -77z"/>
</g>
</svg>
