<?xml version="1.0" standalone="no"?>
<!DOCTYPE svg PUBLIC "-//W3C//DTD SVG 20010904//EN"
 "http://www.w3.org/TR/2001/REC-SVG-20010904/DTD/svg10.dtd">
<svg version="1.0" xmlns="http://www.w3.org/2000/svg"
 width="512.000000pt" height="512.000000pt" viewBox="0 0 512.000000 512.000000"
 preserveAspectRatio="xMidYMid meet">
<metadata>
Created by potrace 1.15, written by Peter Selinger 2001-2017
</metadata>
<g transform="translate(0.000000,512.000000) scale(0.100000,-0.100000)"
fill="#e34f26" stroke="none">
<path d="M1080 4770 l0 -350 120 0 120 0 0 120 0 120 100 0 100 0 0 -120 0
-120 120 0 120 0 0 350 0 350 -120 0 -120 0 0 -110 0 -110 -100 0 -100 0 0
110 0 110 -120 0 -120 0 0 -350z"/>
<path d="M1850 5005 l0 -115 100 0 100 0 0 -235 0 -235 125 0 125 0 0 235 0
235 100 0 100 0 0 115 0 115 -325 0 -325 0 0 -115z"/>
<path d="M2590 4770 l0 -350 120 0 120 0 0 163 0 162 73 -112 c39 -62 75 -113
79 -113 3 0 40 53 82 118 l76 117 0 -167 0 -168 120 0 120 0 0 350 0 350 -129
0 -129 0 -43 -72 c-23 -40 -55 -92 -70 -116 l-27 -42 -68 115 -69 115 -127 0
-128 0 0 -350z"/>
<path d="M3480 4770 l0 -350 285 0 285 0 0 120 0 120 -165 0 -165 0 0 230 0
230 -120 0 -120 0 0 -350z"/>
<path d="M745 4068 c3 -29 78 -863 166 -1853 88 -990 163 -1803 167 -1806 11
-11 1454 -409 1480 -409 25 0 1473 399 1484 409 4 3 79 818 167 1811 89 993
164 1826 167 1853 l6 47 -1822 0 -1821 0 6 -52z m2955 -720 c0 -19 -28 -334
-35 -395 l-6 -53 -870 0 -869 0 4 -22 c3 -13 13 -116 22 -230 l17 -208 830 0
829 0 -6 -42 c-3 -24 -31 -335 -62 -693 -34 -383 -61 -655 -68 -661 -6 -7
-217 -68 -468 -138 l-457 -126 -466 129 c-257 71 -468 131 -470 133 -1 2 -15
138 -29 303 -14 165 -29 326 -32 358 l-7 57 235 0 235 0 13 -170 c7 -94 18
-176 24 -184 11 -13 467 -141 496 -139 21 2 489 129 495 135 4 4 55 525 55
563 0 13 -93 15 -784 15 l-784 0 -6 48 c-8 64 -116 1281 -116 1309 l0 23 1140
0 c905 0 1140 -3 1140 -12z"/>
</g>
</svg>
