<?xml version="1.0" standalone="no"?>
<!DOCTYPE svg PUBLIC "-//W3C//DTD SVG 20010904//EN"
 "http://www.w3.org/TR/2001/REC-SVG-20010904/DTD/svg10.dtd">
<svg version="1.0" xmlns="http://www.w3.org/2000/svg"
 width="1796.000000pt" height="1229.000000pt" viewBox="0 0 1796.000000 1229.000000"
 preserveAspectRatio="xMidYMid meet">
<metadata>
Created by potrace 1.15, written by Peter Selinger 2001-2017
</metadata>
<g transform="translate(0.000000,1229.000000) scale(0.100000,-0.100000)"
fill="#f55247" stroke="none">
<path d="M3545 12269 c-494 -38 -2132 -170 -2715 -219 -424 -35 -609 -54 -645
-66 -81 -28 -130 -67 -160 -129 -26 -51 -27 -61 -23 -162 4 -88 10 -125 37
-203 56 -165 392 -897 3056 -6655 361 -781 676 -1462 701 -1514 104 -221 251
-360 449 -421 89 -28 253 -37 366 -21 122 18 1035 250 3033 772 462 120 840
218 841 216 1 -1 165 -297 365 -657 842 -1520 1438 -2566 1618 -2840 100 -151
220 -276 315 -326 71 -38 74 -39 199 -42 116 -4 138 -1 255 28 163 41 382 113
1023 340 1310 463 4305 1540 4894 1760 121 45 250 97 288 116 188 95 210 190
85 374 -73 107 -884 1200 -1778 2397 l-428 572 52 15 c29 8 588 157 1242 331
725 193 1211 327 1245 343 73 37 103 81 97 144 -5 57 -10 66 -203 300 -83 100
-467 577 -854 1058 -875 1088 -1063 1320 -1129 1392 -69 76 -173 153 -239 178
-108 41 -74 45 -1932 -266 -509 -85 -954 -163 -990 -174 -81 -24 -154 -70
-174 -109 -18 -35 -21 -95 -5 -138 5 -17 421 -613 924 -1324 746 -1057 910
-1295 897 -1301 -37 -17 -5397 -1296 -5404 -1290 -4 4 -979 1634 -2169 3622
-1189 1988 -2185 3649 -2213 3690 -73 107 -143 174 -213 201 -53 21 -76 23
-258 25 -126 2 -292 -5 -450 -17z m387 -501 c9 -7 42 -58 74 -113 31 -55 951
-1643 2044 -3530 1093 -1886 1994 -3444 2003 -3462 22 -42 21 -86 -1 -106 -10
-9 -83 -32 -163 -51 -239 -58 -2997 -716 -3089 -737 -204 -48 -213 -47 -240
14 -44 104 -2152 4457 -3314 6846 -212 437 -389 811 -392 831 -4 24 -1 40 8
47 7 6 322 38 723 73 391 34 1054 92 1475 130 421 37 786 68 811 69 25 1 52
-5 61 -11z m11530 -2924 c33 -17 61 -50 289 -344 100 -129 442 -563 758 -965
461 -584 576 -736 576 -759 0 -25 -7 -33 -45 -52 -25 -12 -115 -38 -200 -59
-85 -20 -564 -138 -1064 -261 -500 -124 -910 -223 -911 -222 -60 76 -1603
2204 -1616 2227 -21 39 -12 68 24 76 12 2 128 23 257 45 327 57 1767 319 1810
329 40 10 83 5 122 -15z m-723 -3402 c20 -21 78 -98 130 -172 95 -136 404
-560 1238 -1701 248 -339 468 -641 488 -672 64 -97 45 -118 -183 -195 -248
-84 -3697 -1254 -4207 -1427 -264 -90 -586 -200 -715 -245 -319 -111 -308
-109 -367 -79 -29 15 -66 48 -95 83 -64 80 -292 464 -1080 1821 -668 1150
-700 1207 -691 1214 4 4 1183 313 2618 686 1436 373 2644 688 2685 701 110 33
135 32 179 -14z"/>
</g>
</svg>
